<?xml version="1.0" encoding="utf-8"?>
<svg xmlns="http://www.w3.org/2000/svg" viewBox="0 0 500 500" xmlns:bx="https://boxy-svg.com">
  <defs>
    <radialGradient gradientUnits="userSpaceOnUse" cx="100" cy="100" r="250" id="gradient-0" gradientTransform="matrix(1.59529, 1.59529, -1.59529, 1.59529, 100, -219.058079)">
      <stop offset="0" style="stop-color: rgb(225, 0, 156);"/>
      <stop offset="1" style="stop-color: rgb(121, 0, 167);"/>
    </radialGradient>
    <bx:export>
      <bx:file format="png" path="favicon.png" width="128" height="128"/>
    </bx:export>
  </defs>
  <rect style="fill: url(&quot;#gradient-0&quot;);" width="500" height="500" rx="80" ry="80"/>
  <path d="M 84.678 23.002 C 84.678 19.029 81.05 15.746 76.558 15.746 L 29.567 15.746 C 21.966 15.746 10.909 16.265 3.308 24.384 C -3.603 31.813 -4.121 41.315 -4.121 48.917 L -4.121 52.89 C -4.121 58.937 -3.948 68.439 4.517 74.485 C 11.6 79.668 20.584 80.013 27.494 80.013 L 69.302 80.013 C 73.621 80.013 77.077 80.532 78.113 80.877 C 78.286 81.396 78.631 82.778 78.631 84.505 C 78.631 92.28 77.94 100.227 76.213 102.991 C 75.694 103.682 73.967 104.718 69.302 104.718 L 3.999 104.718 C -0.493 104.718 -4.121 108.174 -4.121 112.147 C -4.121 116.121 -0.493 119.403 3.999 119.403 L 69.302 119.403 C 75.349 119.403 85.024 118.366 90.206 110.247 C 94.353 103.682 94.871 95.908 94.871 89.17 L 94.871 84.505 C 94.871 80.877 94.871 73.794 88.133 69.302 C 82.95 65.847 77.249 65.329 72.93 65.329 C 71.548 65.329 70.339 65.502 69.302 65.502 L 31.813 65.502 C 23.693 65.502 17.129 64.811 14.71 63.083 C 13.501 62.219 12.118 58.937 12.118 52.89 C 12.118 44.079 12.809 36.823 15.746 33.714 C 18.165 30.949 23.348 30.431 31.813 30.431 L 76.558 30.431 C 81.05 30.431 84.678 26.976 84.678 23.002 Z M 96.76 23.002 C 96.76 26.976 100.388 30.431 104.879 30.431 L 140.986 30.431 L 140.986 114.047 C 140.986 118.021 144.614 121.303 149.106 121.303 C 153.598 121.303 157.226 118.021 157.226 114.047 L 157.226 30.431 L 193.333 30.431 C 197.825 30.431 201.626 26.976 201.626 23.002 C 201.626 19.029 197.825 15.746 193.333 15.746 L 104.879 15.746 C 100.388 15.746 96.76 19.029 96.76 23.002 Z" transform="matrix(1.702972, 0, 0, 1.702972, 88.599091, 32.587852)" style="fill: rgb(255, 255, 255);"/>
  <path transform="matrix(1.702972, 0, 0, 1.702972, 88.599091, 32.587852)" style="fill: rgb(255, 255, 255);"/>
  <path d="M -5.934 233.08 C -5.934 236.189 -2.651 240.336 2.186 240.336 L 37.775 240.336 C 50.732 240.336 66.453 239.817 78.028 230.661 C 90.64 220.814 90.812 205.265 90.812 193.69 L 90.812 189.371 C 90.812 176.241 90.294 160.52 78.719 149.118 C 66.799 137.37 49.868 136.679 36.393 136.679 L 2.186 136.679 C -1.269 136.679 -5.934 139.443 -5.934 143.935 Z M 10.306 225.651 L 10.306 151.364 L 32.765 151.364 C 47.622 151.364 59.888 151.882 66.799 158.793 C 73.882 165.876 74.573 179.006 74.573 193.69 C 74.573 205.611 73.191 215.113 67.49 219.604 C 60.752 224.96 47.277 225.651 32.765 225.651 Z M 179.939 204.401 C 182.703 205.438 185.295 208.72 185.295 213.385 C 185.295 218.395 183.049 221.678 180.976 222.541 C 174.756 225.305 160.59 225.651 148.324 225.651 L 123.101 225.651 L 123.101 200.946 L 141.586 200.946 C 155.407 200.946 172.165 201.464 179.939 204.401 Z M 106.861 233.08 C 106.861 237.053 110.489 240.336 114.981 240.336 L 154.198 240.336 C 165.255 240.336 178.039 239.99 188.059 235.671 C 198.079 231.352 201.534 221.678 201.534 213.385 C 201.534 204.229 196.524 194.727 186.331 190.926 C 185.468 190.581 184.604 190.408 183.74 190.062 C 189.096 183.67 189.787 175.205 189.787 168.813 C 189.787 160.693 188.577 149.291 178.212 142.898 C 168.883 137.025 156.962 136.679 146.942 136.679 L 114.981 136.679 C 111.526 136.679 106.861 139.443 106.861 143.935 Z M 141.586 186.434 L 123.101 186.434 L 123.101 151.364 L 141.586 151.364 C 152.989 151.364 164.218 151.882 169.055 154.992 C 171.647 156.547 173.547 161.384 173.547 168.813 C 173.547 176.241 171.647 181.079 169.055 182.634 C 164.218 185.743 152.989 186.434 141.586 186.434 Z" transform="matrix(1.702972, 0, 0, 1.702972, 88.599091, 32.587852)" style="fill: rgb(255, 255, 255);"/>
</svg>